<svg width="12" height="12" viewBox="0 0 12 12" fill="none" xmlns="http://www.w3.org/2000/svg">
<path d="M6 0C2.68696 0 0 2.68696 0 6C0 9.31304 2.68696 12 6 12C9.31304 12 12 9.31304 12 6C12 2.68696 9.31304 0 6 0ZM6 10.9565C3.26087 10.9565 1.04348 8.73913 1.04348 6C1.04348 3.26087 3.26087 1.04348 6 1.04348C8.73913 1.04348 10.9565 3.26087 10.9565 6C10.9565 8.73913 8.73913 10.9565 6 10.9565ZM7.99566 7.25219C8.20435 7.46088 8.20435 7.78696 7.99566 7.99566C7.89131 8.10001 7.76087 8.15217 7.63043 8.15217C7.5 8.15217 7.36956 8.10001 7.26521 7.99566L5.64783 6.37825C5.54348 6.2739 5.4913 6.14349 5.4913 6.01306V2.9087C5.4913 2.62175 5.72608 2.38696 6.01304 2.38696C6.3 2.38696 6.53478 2.62175 6.53478 2.9087V5.80435L7.99566 7.25219Z" fill="#4F374C"/>
</svg>
