<svg width="20" height="20" viewBox="0 0 20 20" fill="none" xmlns="http://www.w3.org/2000/svg">
<path d="M10 0C4.47826 0 0 4.47826 0 10C0 15.5217 4.47826 20 10 20C15.5217 20 20 15.5217 20 10C20 4.47826 15.5217 0 10 0ZM10 18.2609C5.43478 18.2609 1.73913 14.5652 1.73913 10C1.73913 5.43478 5.43478 1.73913 10 1.73913C14.5652 1.73913 18.2609 5.43478 18.2609 10C18.2609 14.5652 14.5652 18.2609 10 18.2609ZM13.3261 12.087C13.6739 12.4348 13.6739 12.9783 13.3261 13.3261C13.1522 13.5 12.9348 13.587 12.7174 13.587C12.5 13.587 12.2826 13.5 12.1087 13.3261L9.41305 10.6304C9.23914 10.4565 9.15217 10.2392 9.15217 10.0218V4.84784C9.15217 4.36958 9.54347 3.97827 10.0217 3.97827C10.5 3.97827 10.8913 4.36958 10.8913 4.84784V9.67391L13.3261 12.087Z" fill="white"/>
</svg>
