<svg width="120" height="89" viewBox="0 0 120 89" fill="none" xmlns="http://www.w3.org/2000/svg">
<path d="M52.2576 49.7657C54.4341 49.704 56.4057 51.5408 56.4057 53.7271V60.7201C56.4057 61.4271 56.9764 62 57.6803 62H75.0913C75.5703 62 76.009 61.7303 76.2267 61.3018C76.3121 61.1335 84.6039 44.7315 88.2431 30.6454C89.302 30.2441 90.2887 29.7749 91.1807 29.2369C95.1571 26.838 97.2589 23.2161 97.2589 18.7623C97.2589 16.8442 97.051 14.4797 96.3297 12.0641C98.064 11.254 99 9.96543 99 8.27285C99 3.01534 97.2662 0 94.2432 0C92.4388 0 90.1283 0.789504 88.413 2.15126C85.6832 0.72174 82.3941 0 78.5735 0C74.8396 0 71.5397 0.750173 68.7907 2.19893C67.0698 0.808573 64.7286 0 62.9038 0C59.9431 0 58.2202 2.8936 58.1503 7.95174C54.2832 8.62836 46.9863 9.98484 36.517 12.2669C29.578 13.7793 24.5019 15.567 22.2828 19.3753C20 23.2934 21.0106 28.8788 23.3814 36.6208C27.9338 51.487 34.3749 61.0428 34.6469 61.4422C34.8844 61.7913 35.2782 61.9998 35.6992 61.9998H47.0599C47.7639 61.9998 48.3345 61.4267 48.3345 60.72V53.727C48.3344 51.6166 50.1821 49.8244 52.2576 49.7657V49.7657ZM82.3794 29.4715C81.1592 29.6342 79.8851 29.7201 78.5733 29.7201C77.2615 29.7201 75.9874 29.6344 74.7672 29.4715C73.849 28.1967 73.3293 26.5096 73.3293 24.7505C73.3293 22.6348 74.0213 19.512 75.0511 16.9802C76.1443 14.2923 77.494 12.6225 78.5733 12.6225C79.6526 12.6225 81.0023 14.2923 82.0957 16.9802C83.1255 19.5122 83.8174 22.6348 83.8174 24.7505C83.8174 26.5098 83.2977 28.1969 82.3794 29.4715V29.4715ZM77.6025 2.57981V11.0885C73.9184 12.4082 71.6299 20.9662 71.6299 24.7506C71.6299 26.2826 71.9653 27.7777 72.5775 29.0809C70.5703 28.6271 68.7683 27.9412 67.2792 27.0429C64.0663 25.1046 62.4373 22.3188 62.4373 18.7625C62.4371 15.0454 63.5523 3.10626 77.6025 2.57981V2.57981ZM62.9036 2.55972C64.0324 2.55972 65.3691 3.01074 66.464 3.69349C65.6097 4.35564 64.8288 5.1036 64.128 5.93635C63.1941 7.04612 62.4073 8.31133 61.7711 9.6925C61.1355 9.36832 60.696 8.91372 60.696 8.27285C60.696 7.31888 60.8025 2.55972 62.9036 2.55972V2.55972ZM45.7851 53.727V59.4401H43.3215L43.0804 58.2299C42.5988 55.8123 42.9127 53.8926 44.0133 52.5239C44.6071 51.7855 45.4412 51.1955 46.503 50.7518C46.0452 51.6447 45.7851 52.6557 45.7851 53.727ZM52.457 47.2025C47.7721 47.328 43.9072 48.5815 42.0297 50.916C40.4536 52.8758 39.9524 55.5787 40.5805 58.732L40.7215 59.4401H36.3892C34.9643 57.1967 29.6435 48.3615 25.8179 35.8686C23.2585 27.5104 22.8967 23.3906 24.4831 20.6679C25.9805 18.098 29.6237 16.3887 37.0576 14.7682C47.6842 12.4519 55.0169 11.0951 58.7913 10.4376C59.2491 11.1109 59.9433 11.6648 60.8596 12.0852C60.2241 14.1508 59.8879 16.4039 59.8879 18.7622C59.8879 23.2159 61.9896 26.8379 65.9661 29.2367C69.2191 31.199 73.6963 32.2796 78.5733 32.2796C80.9674 32.2796 83.2642 32.0177 85.3681 31.5204C82.0847 43.316 75.8399 56.3207 74.3033 59.4399H68.0864L71.4541 47.87C71.6516 47.1915 71.2638 46.4808 70.5883 46.2824C69.9124 46.0839 69.2048 46.4733 69.0073 47.1518L65.4306 59.4399H58.9553V53.7268C58.9551 50.1293 56.0401 47.2025 52.457 47.2025V47.2025ZM89.8677 27.0427C88.3786 27.941 86.5766 28.627 84.5695 29.0807C85.1816 27.7777 85.517 26.2826 85.517 24.7505C85.517 20.884 83.1278 12.0353 79.3021 11.0139V2.5701C93.1895 2.94264 94.7097 13.9732 94.7097 18.7623C94.7097 22.3186 93.0806 25.1044 89.8677 27.0427V27.0427ZM95.4334 9.66304C94.8492 8.37995 94.0909 7.11933 93.11 5.94146C92.3983 5.08691 91.6108 4.32397 90.7496 3.65263C91.8318 2.99303 93.1373 2.55972 94.2432 2.55972C96.3443 2.55972 96.4508 7.31888 96.4508 8.27285C96.4508 8.89431 96.0382 9.3409 95.4334 9.66304Z" fill="#4F374C"/>
<path d="M70 22C70.2627 22 70.52 21.84 70.7067 21.562C70.8934 21.282 71 20.8959 71 20.5C71 20.1061 70.8933 19.72 70.7067 19.44C70.52 19.16 70.2627 19 70 19C69.7361 19 69.4786 19.16 69.292 19.44C69.1067 19.718 69 20.1061 69 20.5C69 20.8959 69.1067 21.282 69.292 21.562C69.4786 21.8402 69.7361 22 70 22Z" fill="#4F374C"/>
<path d="M87.5 19C87.1061 19 86.718 19.16 86.44 19.44C86.16 19.718 86 20.1061 86 20.5C86 20.8959 86.16 21.282 86.44 21.56C86.72 21.84 87.1061 22 87.5 22C87.8959 22 88.282 21.84 88.562 21.56C88.84 21.282 89 20.8959 89 20.5C89 20.1061 88.84 19.718 88.562 19.44C88.282 19.16 87.8961 19 87.5 19Z" fill="#4F374C"/>
<path d="M78.5001 20C76.5047 20 75 20.8568 75 21.9932C75 22.9637 76.0993 23.7284 77.6628 23.9314V26.3994H76.7845C76.3221 26.3994 75.9474 26.7578 75.9474 27.1997C75.9474 27.6418 76.3223 28 76.7845 28H80.2153C80.6776 28 81.0524 27.6416 81.0524 27.1997C81.0524 26.7576 80.6776 26.3994 80.2153 26.3994H79.3371V23.9314C80.9006 23.7284 82 22.9637 82 21.9932C82.0003 20.857 80.4956 20 78.5001 20Z" fill="#4F374C"/>
<path d="M14.15 77.2C15.4967 77.2 16.5634 77.5934 17.35 78.38C18.1367 79.1534 18.53 80.32 18.53 81.88V88H16.03V82.2C16.03 81.2667 15.8234 80.5667 15.41 80.1C14.9967 79.62 14.4034 79.38 13.63 79.38C12.79 79.38 12.1167 79.66 11.61 80.22C11.1034 80.7667 10.85 81.5534 10.85 82.58V88H8.35004V82.2C8.35004 81.2667 8.14338 80.5667 7.73004 80.1C7.31671 79.62 6.72338 79.38 5.95004 79.38C5.09671 79.38 4.41671 79.6534 3.91004 80.2C3.41671 80.7467 3.17004 81.54 3.17004 82.58V88H0.670044V77.32H3.05004V78.68C3.45004 78.2 3.95004 77.8334 4.55004 77.58C5.15004 77.3267 5.81671 77.2 6.55004 77.2C7.35004 77.2 8.05671 77.3534 8.67004 77.66C9.29671 77.9534 9.79004 78.3934 10.15 78.98C10.59 78.42 11.1567 77.9867 11.85 77.68C12.5434 77.36 13.31 77.2 14.15 77.2Z" fill="#4F374C"/>
<path d="M26.2047 77.2C27.7781 77.2 28.9781 77.58 29.8047 78.34C30.6447 79.0867 31.0647 80.22 31.0647 81.74V88H28.7047V86.7C28.3981 87.1667 27.9581 87.5267 27.3847 87.78C26.8247 88.02 26.1447 88.14 25.3447 88.14C24.5447 88.14 23.8447 88.0067 23.2447 87.74C22.6447 87.46 22.1781 87.08 21.8447 86.6C21.5247 86.1067 21.3647 85.5534 21.3647 84.94C21.3647 83.98 21.7181 83.2134 22.4247 82.64C23.1447 82.0534 24.2714 81.76 25.8047 81.76H28.5647V81.6C28.5647 80.8534 28.3381 80.28 27.8847 79.88C27.4447 79.48 26.7847 79.28 25.9047 79.28C25.3047 79.28 24.7114 79.3734 24.1247 79.56C23.5514 79.7467 23.0647 80.0067 22.6647 80.34L21.6847 78.52C22.2447 78.0934 22.9181 77.7667 23.7047 77.54C24.4914 77.3134 25.3247 77.2 26.2047 77.2ZM25.8647 86.32C26.4914 86.32 27.0447 86.18 27.5247 85.9C28.0181 85.6067 28.3647 85.1934 28.5647 84.66V83.42H25.9847C24.5447 83.42 23.8247 83.8934 23.8247 84.84C23.8247 85.2934 24.0047 85.6534 24.3647 85.92C24.7247 86.1867 25.2247 86.32 25.8647 86.32Z" fill="#4F374C"/>
<path d="M48.1532 77.2C49.4998 77.2 50.5665 77.5934 51.3532 78.38C52.1398 79.1534 52.5332 80.32 52.5332 81.88V88H50.0332V82.2C50.0332 81.2667 49.8265 80.5667 49.4132 80.1C48.9998 79.62 48.4065 79.38 47.6332 79.38C46.7932 79.38 46.1198 79.66 45.6132 80.22C45.1065 80.7667 44.8532 81.5534 44.8532 82.58V88H42.3532V82.2C42.3532 81.2667 42.1465 80.5667 41.7332 80.1C41.3198 79.62 40.7265 79.38 39.9532 79.38C39.0998 79.38 38.4198 79.6534 37.9132 80.2C37.4198 80.7467 37.1732 81.54 37.1732 82.58V88H34.6732V77.32H37.0532V78.68C37.4532 78.2 37.9532 77.8334 38.5532 77.58C39.1532 77.3267 39.8198 77.2 40.5532 77.2C41.3532 77.2 42.0598 77.3534 42.6732 77.66C43.2998 77.9534 43.7932 78.3934 44.1532 78.98C44.5932 78.42 45.1598 77.9867 45.8532 77.68C46.5465 77.36 47.3132 77.2 48.1532 77.2Z" fill="#4F374C"/>
<path d="M60.2079 77.2C61.7812 77.2 62.9812 77.58 63.8079 78.34C64.6479 79.0867 65.0678 80.22 65.0678 81.74V88H62.7079V86.7C62.4012 87.1667 61.9612 87.5267 61.3879 87.78C60.8279 88.02 60.1479 88.14 59.3479 88.14C58.5479 88.14 57.8479 88.0067 57.2479 87.74C56.6479 87.46 56.1812 87.08 55.8479 86.6C55.5279 86.1067 55.3679 85.5534 55.3679 84.94C55.3679 83.98 55.7212 83.2134 56.4279 82.64C57.1479 82.0534 58.2745 81.76 59.8079 81.76H62.5679V81.6C62.5679 80.8534 62.3412 80.28 61.8879 79.88C61.4479 79.48 60.7879 79.28 59.9079 79.28C59.3079 79.28 58.7145 79.3734 58.1279 79.56C57.5545 79.7467 57.0679 80.0067 56.6679 80.34L55.6879 78.52C56.2479 78.0934 56.9212 77.7667 57.7079 77.54C58.4945 77.3134 59.3279 77.2 60.2079 77.2ZM59.8679 86.32C60.4945 86.32 61.0479 86.18 61.5279 85.9C62.0212 85.6067 62.3679 85.1934 62.5679 84.66V83.42H59.9879C58.5479 83.42 57.8279 83.8934 57.8279 84.84C57.8279 85.2934 58.0079 85.6534 58.3679 85.92C58.7279 86.1867 59.2279 86.32 59.8679 86.32Z" fill="#4F374C"/>
<path d="M80.5236 77.2C81.5636 77.2 82.4903 77.4267 83.3036 77.88C84.1303 78.3334 84.777 78.9734 85.2436 79.8C85.7103 80.6267 85.9436 81.58 85.9436 82.66C85.9436 83.74 85.7103 84.7 85.2436 85.54C84.777 86.3667 84.1303 87.0067 83.3036 87.46C82.4903 87.9134 81.5636 88.14 80.5236 88.14C79.7903 88.14 79.117 88.0134 78.5036 87.76C77.9036 87.5067 77.397 87.1267 76.9836 86.62V88H74.6036V73.16H77.1036V78.62C77.5303 78.1534 78.0303 77.8 78.6036 77.56C79.1903 77.32 79.8303 77.2 80.5236 77.2ZM80.2436 86C81.1636 86 81.917 85.6934 82.5036 85.08C83.1036 84.4667 83.4036 83.66 83.4036 82.66C83.4036 81.66 83.1036 80.8534 82.5036 80.24C81.917 79.6267 81.1636 79.32 80.2436 79.32C79.6436 79.32 79.1036 79.46 78.6236 79.74C78.1436 80.0067 77.7636 80.3934 77.4836 80.9C77.2036 81.4067 77.0636 81.9934 77.0636 82.66C77.0636 83.3267 77.2036 83.9134 77.4836 84.42C77.7636 84.9267 78.1436 85.32 78.6236 85.6C79.1036 85.8667 79.6436 86 80.2436 86Z" fill="#4F374C"/>
<path d="M98.7546 82.72C98.7546 82.8934 98.7412 83.14 98.7146 83.46H90.3346C90.4812 84.2467 90.8612 84.8734 91.4746 85.34C92.1012 85.7934 92.8746 86.02 93.7946 86.02C94.9679 86.02 95.9346 85.6334 96.6946 84.86L98.0346 86.4C97.5546 86.9734 96.9479 87.4067 96.2146 87.7C95.4812 87.9934 94.6546 88.14 93.7346 88.14C92.5612 88.14 91.5279 87.9067 90.6346 87.44C89.7412 86.9734 89.0479 86.3267 88.5546 85.5C88.0746 84.66 87.8346 83.7134 87.8346 82.66C87.8346 81.62 88.0679 80.6867 88.5346 79.86C89.0146 79.02 89.6746 78.3667 90.5146 77.9C91.3546 77.4334 92.3012 77.2 93.3546 77.2C94.3946 77.2 95.3212 77.4334 96.1346 77.9C96.9612 78.3534 97.6012 79 98.0546 79.84C98.5212 80.6667 98.7546 81.6267 98.7546 82.72ZM93.3546 79.2C92.5546 79.2 91.8746 79.44 91.3146 79.92C90.7679 80.3867 90.4346 81.0134 90.3146 81.8H96.3746C96.2679 81.0267 95.9412 80.4 95.3946 79.92C94.8479 79.44 94.1679 79.2 93.3546 79.2Z" fill="#4F374C"/>
<path d="M105.343 77.2C106.916 77.2 108.116 77.58 108.943 78.34C109.783 79.0867 110.203 80.22 110.203 81.74V88H107.843V86.7C107.536 87.1667 107.096 87.5267 106.523 87.78C105.963 88.02 105.283 88.14 104.483 88.14C103.683 88.14 102.983 88.0067 102.383 87.74C101.783 87.46 101.316 87.08 100.983 86.6C100.663 86.1067 100.503 85.5534 100.503 84.94C100.503 83.98 100.856 83.2134 101.563 82.64C102.283 82.0534 103.41 81.76 104.943 81.76H107.703V81.6C107.703 80.8534 107.476 80.28 107.023 79.88C106.583 79.48 105.923 79.28 105.043 79.28C104.443 79.28 103.85 79.3734 103.263 79.56C102.69 79.7467 102.203 80.0067 101.803 80.34L100.823 78.52C101.383 78.0934 102.056 77.7667 102.843 77.54C103.63 77.3134 104.463 77.2 105.343 77.2ZM105.003 86.32C105.63 86.32 106.183 86.18 106.663 85.9C107.156 85.6067 107.503 85.1934 107.703 84.66V83.42H105.123C103.683 83.42 102.963 83.8934 102.963 84.84C102.963 85.2934 103.143 85.6534 103.503 85.92C103.863 86.1867 104.363 86.32 105.003 86.32Z" fill="#4F374C"/>
<path d="M116.191 78.88C116.911 77.76 118.178 77.2 119.991 77.2V79.58C119.778 79.54 119.585 79.52 119.411 79.52C118.438 79.52 117.678 79.8067 117.131 80.38C116.585 80.94 116.311 81.7534 116.311 82.82V88H113.811V77.32H116.191V78.88Z" fill="#4F374C"/>
</svg>
