<svg width="112" height="113" viewBox="0 0 112 113" fill="none" xmlns="http://www.w3.org/2000/svg">
<path d="M49.2576 72.7657C51.4341 72.704 53.4057 74.5408 53.4057 76.7271V83.7201C53.4057 84.4271 53.9764 85 54.6803 85H72.0913C72.5703 85 73.009 84.7303 73.2267 84.3018C73.3121 84.1335 81.6039 67.7315 85.2431 53.6454C86.302 53.2441 87.2887 52.7749 88.1807 52.2369C92.1571 49.838 94.2589 46.2161 94.2589 41.7623C94.2589 39.8442 94.051 37.4797 93.3297 35.0641C95.064 34.254 96 32.9654 96 31.2729C96 26.0153 94.2662 23 91.2432 23C89.4388 23 87.1283 23.7895 85.413 25.1513C82.6832 23.7217 79.3941 27 75.5735 27C71.8396 27 68.5397 23.7502 65.7907 25.1989C64.0698 23.8086 61.7286 23 59.9038 23C56.9431 23 55.2202 25.8936 55.1503 30.9517C51.2832 31.6284 43.9863 32.9848 33.517 35.2669C26.578 36.7793 21.5019 38.567 19.2828 42.3753C17 46.2934 18.0106 51.8788 20.3814 59.6208C24.9338 74.487 31.3749 84.0428 31.6469 84.4422C31.8844 84.7913 32.2782 84.9998 32.6992 84.9998H44.0599C44.7639 84.9998 45.3345 84.4267 45.3345 83.72V76.727C45.3344 74.6166 47.1821 72.8244 49.2576 72.7657ZM79.3794 52.4715C78.1592 52.6342 76.8851 52.7201 75.5733 52.7201C74.2615 52.7201 72.9874 52.6344 71.7672 52.4715C70.849 51.1967 70.3293 49.5096 70.3293 47.7505C70.3293 45.6348 71.0213 42.512 72.0511 39.9802C73.1443 37.2923 74.494 35.6225 75.5733 35.6225C76.6526 35.6225 78.0023 37.2923 79.0957 39.9802C80.1255 42.5122 80.8174 45.6348 80.8174 47.7505C80.8174 49.5098 80.2977 51.1969 79.3794 52.4715ZM74.6025 29.5798V34.0885C70.9184 35.4082 68.6299 43.9662 68.6299 47.7506C68.6299 49.2826 68.9653 50.7777 69.5775 52.0809C67.5703 51.6271 65.7683 50.9412 64.2792 50.0429C61.0663 48.1046 59.4373 45.3188 59.4373 41.7625C59.4371 38.0454 58.9246 26 74.6025 29.5798ZM59.9036 25.5597C61.0324 25.5597 62.3691 26.0107 63.464 26.6935C62.6097 27.3556 61.8288 28.1036 61.128 28.9363C60.1941 30.0461 59.4073 31.3113 58.7711 32.6925C58.1355 32.3683 57.696 31.9137 57.696 31.2729C57.696 30.3189 57.8025 25.5597 59.9036 25.5597ZM42.7851 76.727V82.4401H40.3215L40.0804 81.2299C39.5988 78.8123 39.9127 76.8926 41.0133 75.5239C41.6071 74.7855 42.4412 74.1955 43.503 73.7518C43.0452 74.6447 42.7851 75.6557 42.7851 76.727ZM49.457 70.2025C44.7721 70.328 40.9072 71.5815 39.0297 73.916C37.4536 75.8758 36.9524 78.5787 37.5805 81.732L37.7215 82.4401H33.3892C31.9643 80.1967 26.6435 71.3615 22.8179 58.8685C20.2585 50.5104 19.8967 46.3906 21.4831 43.6679C22.9805 41.098 26.6237 39.3887 34.0576 37.7682C44.6842 35.4519 52.0169 34.0951 55.7913 33.4376C56.2491 34.1109 56.9433 34.6648 57.8596 35.0852C57.2241 37.1508 56.8879 39.4039 56.8879 41.7622C56.8879 46.2159 58.9896 49.8379 62.9661 52.2367C66.219 54.199 70.6963 55.2796 75.5733 55.2796C77.9674 55.2796 80.2642 55.0177 82.3681 54.5204C79.0847 66.316 72.8399 79.3207 71.3033 82.4399H65.0864L68.4541 70.87C68.6516 70.1915 68.2638 69.4808 67.5883 69.2824C66.9124 69.0839 66.2048 69.4733 66.0073 70.1518L62.4306 82.4399H55.9553V76.7268C55.9551 73.1293 53.0401 70.2025 49.457 70.2025ZM86.8677 50.0427C85.3786 50.941 83.5766 51.627 81.5695 52.0807C82.1816 50.7777 82.517 49.2826 82.517 47.7505C82.517 43.884 80.1278 35.0353 76.3021 34.0139V29.5701C91.7097 26.6526 91.7097 36.9732 91.7097 41.7623C91.7097 45.3186 90.0806 48.1044 86.8677 50.0427ZM92.4334 32.663C91.8492 31.3799 91.0909 30.1193 90.11 28.9415C89.3983 28.0869 88.6108 27.324 87.7496 26.6526C88.8318 25.993 90.1373 25.5597 91.2432 25.5597C93.3443 25.5597 93.4508 30.3189 93.4508 31.2729C93.4508 31.8943 93.0382 32.3409 92.4334 32.663Z" fill="#4F374C"/>
<path d="M66.5 45C66.8941 45 67.28 44.84 67.56 44.562C67.8402 44.282 68 43.8959 68 43.5C68 43.1061 67.84 42.72 67.56 42.44C67.28 42.16 66.8941 42 66.5 42C66.1041 42 65.718 42.16 65.438 42.44C65.16 42.718 65 43.1061 65 43.5C65 43.8959 65.16 44.282 65.438 44.562C65.718 44.8402 66.1041 45 66.5 45Z" fill="#4F374C"/>
<path d="M84.5 42C84.1061 42 83.718 42.16 83.44 42.44C83.16 42.718 83 43.1061 83 43.5C83 43.8959 83.16 44.282 83.44 44.56C83.72 44.84 84.1061 45 84.5 45C84.8959 45 85.282 44.84 85.562 44.56C85.84 44.282 86 43.8959 86 43.5C86 43.1061 85.84 42.718 85.562 42.44C85.282 42.16 84.8961 42 84.5 42Z" fill="#4F374C"/>
<path d="M75.5001 43C73.5047 43 72 43.8568 72 44.9932C72 45.9637 73.0993 46.7284 74.6628 46.9314V49.3994H73.7845C73.3221 49.3994 72.9474 49.7578 72.9474 50.1997C72.9474 50.6418 73.3223 51 73.7845 51H77.2153C77.6776 51 78.0524 50.6416 78.0524 50.1997C78.0524 49.7576 77.6776 49.3994 77.2153 49.3994H76.3371V46.9314C77.9006 46.7284 79 45.9637 79 44.9932C79.0003 43.857 77.4956 43 75.5001 43Z" fill="#4F374C"/>
<path d="M76 23.2845C80.2222 23.2845 84.1891 22.4569 87.5283 20.958C87.6938 19.9202 87.7835 18.8419 87.7835 17.7634C87.7835 9.54301 82.8438 2.52988 76.0069 0C69.163 2.52988 64.2233 9.54301 64.2233 17.7634C64.2233 18.8418 64.3061 19.9202 64.4786 20.958C67.8108 22.4162 71.7778 23.2845 76 23.2845ZM72.3297 13.1174C73.3852 12.663 74.6547 12.3713 76 12.3713C77.3453 12.3713 78.5732 12.663 79.6703 13.1174C79.7117 13.4497 79.7531 13.7821 79.7531 14.1144C79.7531 16.7324 78.1938 18.93 75.9931 19.7575C73.8406 18.9706 72.2331 16.7257 72.2331 14.1144C72.24 13.7821 72.2814 13.4497 72.3297 13.1174ZM95 22.9114C95 27.9373 86.4726 32 76 32C65.5272 32 57 27.9305 57 22.9114C57 20.4628 59.0697 18.2179 62.402 16.5628C62.3192 17.3498 62.2778 18.1432 62.2778 18.9706C62.2778 20.3002 62.3606 21.5888 62.5744 22.8706C66.5 24.6545 71.0602 25.6923 76 25.6923C80.9397 25.6923 85.4999 24.6545 89.4255 22.8706C89.6394 21.6227 89.7222 20.3002 89.7222 18.9706C89.7222 18.1432 89.6807 17.3498 89.598 16.5628C92.9303 18.2179 95 20.4222 95 22.9114Z" fill="#4F374C"/>
<path d="M6.87705 93.096C5.66572 93.096 5.06005 93.7554 5.06005 95.074V95.81H8.44105V98.11H5.15205V108H2.27705V98.11H0.253052V95.81H2.27705V95.028C2.27705 93.7094 2.66039 92.6744 3.42705 91.923C4.19372 91.1564 5.27472 90.773 6.67005 90.773C7.77405 90.773 8.64039 90.9954 9.26905 91.44L8.46405 93.602C7.97339 93.2647 7.44439 93.096 6.87705 93.096ZM12.2131 95.718H15.0881V108H12.2131V95.718ZM13.6621 93.694C13.1407 93.694 12.7037 93.533 12.3511 93.211C11.9984 92.8737 11.8221 92.4597 11.8221 91.969C11.8221 91.4784 11.9984 91.072 12.3511 90.75C12.7037 90.4127 13.1407 90.244 13.6621 90.244C14.1834 90.244 14.6204 90.405 14.9731 90.727C15.3257 91.0337 15.5021 91.4247 15.5021 91.9C15.5021 92.406 15.3257 92.8354 14.9731 93.188C14.6357 93.5254 14.1987 93.694 13.6621 93.694Z" fill="#5D415E"/>
<path d="M21.6035 97.512C22.4315 96.224 23.8882 95.58 25.9735 95.58V98.317C25.7282 98.271 25.5059 98.248 25.3065 98.248C24.1872 98.248 23.3132 98.5777 22.6845 99.237C22.0559 99.881 21.7415 100.816 21.7415 102.043V108H18.8665V95.718H21.6035V97.512Z" fill="#5D415E"/>
<path d="M39.8461 101.928C39.8461 102.127 39.8308 102.411 39.8001 102.779H30.1631C30.3318 103.684 30.7688 104.404 31.4741 104.941C32.1948 105.462 33.0841 105.723 34.1421 105.723C35.4914 105.723 36.6031 105.278 37.4771 104.389L39.0181 106.16C38.4661 106.819 37.7685 107.318 36.9251 107.655C36.0818 107.992 35.1311 108.161 34.0731 108.161C32.7238 108.161 31.5354 107.893 30.5081 107.356C29.4808 106.819 28.6834 106.076 28.1161 105.125C27.5641 104.159 27.2881 103.07 27.2881 101.859C27.2881 100.663 27.5564 99.5897 28.0931 98.639C28.6451 97.673 29.4041 96.9217 30.3701 96.385C31.3361 95.8484 32.4248 95.58 33.6361 95.58C34.8321 95.58 35.8978 95.8484 36.8331 96.385C37.7838 96.9064 38.5198 97.65 39.0411 98.616C39.5778 99.5667 39.8461 100.671 39.8461 101.928ZM33.6361 97.88C32.7161 97.88 31.9341 98.156 31.2901 98.708C30.6614 99.2447 30.2781 99.9654 30.1401 100.87H37.1091C36.9864 99.9807 36.6108 99.26 35.9821 98.708C35.3535 98.156 34.5714 97.88 33.6361 97.88Z" fill="#5D415E"/>
<path d="M46.4027 108.161C45.4061 108.161 44.4324 108.031 43.4817 107.77C42.5311 107.509 41.7721 107.18 41.2047 106.781L42.3087 104.596C42.8607 104.964 43.5201 105.263 44.2867 105.493C45.0687 105.708 45.8354 105.815 46.5867 105.815C48.3041 105.815 49.1627 105.363 49.1627 104.458C49.1627 104.029 48.9404 103.73 48.4957 103.561C48.0664 103.392 47.3687 103.231 46.4027 103.078C45.3907 102.925 44.5627 102.748 43.9187 102.549C43.2901 102.35 42.7381 102.005 42.2627 101.514C41.8027 101.008 41.5727 100.31 41.5727 99.421C41.5727 98.2557 42.0557 97.328 43.0217 96.638C44.0031 95.9327 45.3217 95.58 46.9777 95.58C47.8211 95.58 48.6644 95.6797 49.5077 95.879C50.3511 96.063 51.0411 96.316 51.5777 96.638L50.4737 98.823C49.4311 98.2097 48.2581 97.903 46.9547 97.903C46.1114 97.903 45.4674 98.0334 45.0227 98.294C44.5934 98.5394 44.3787 98.869 44.3787 99.283C44.3787 99.743 44.6087 100.073 45.0687 100.272C45.5441 100.456 46.2724 100.632 47.2537 100.801C48.2351 100.954 49.0401 101.131 49.6687 101.33C50.2974 101.529 50.8341 101.867 51.2787 102.342C51.7387 102.817 51.9687 103.492 51.9687 104.366C51.9687 105.516 51.4704 106.436 50.4737 107.126C49.4771 107.816 48.1201 108.161 46.4027 108.161Z" fill="#5D415E"/>
<path d="M66.4506 95.718V112.462H63.5756V106.505C62.6096 107.609 61.2986 108.161 59.6426 108.161C58.4466 108.161 57.3733 107.9 56.4226 107.379C55.4873 106.858 54.7513 106.122 54.2146 105.171C53.6933 104.22 53.4326 103.116 53.4326 101.859C53.4326 100.617 53.701 99.5207 54.2376 98.57C54.7743 97.6194 55.5103 96.8834 56.4456 96.362C57.381 95.8407 58.4466 95.58 59.6426 95.58C60.486 95.58 61.2526 95.7257 61.9426 96.017C62.648 96.3084 63.2383 96.7454 63.7136 97.328V95.718H66.4506ZM59.9646 105.7C61.0226 105.7 61.8966 105.347 62.5866 104.642C63.2766 103.937 63.6216 103.009 63.6216 101.859C63.6216 100.709 63.2766 99.7814 62.5866 99.076C61.8966 98.3707 61.0226 98.018 59.9646 98.018C58.9066 98.018 58.0326 98.3707 57.3426 99.076C56.668 99.7814 56.3306 100.709 56.3306 101.859C56.3306 103.009 56.668 103.937 57.3426 104.642C58.0326 105.347 58.9066 105.7 59.9646 105.7Z" fill="#5D415E"/>
<path d="M82.1032 95.718V108H79.3662V106.436C78.9062 106.988 78.3312 107.417 77.6412 107.724C76.9512 108.015 76.2076 108.161 75.4102 108.161C73.7696 108.161 72.4739 107.709 71.5232 106.804C70.5879 105.884 70.1202 104.527 70.1202 102.733V95.718H72.9952V102.342C72.9952 103.446 73.2406 104.274 73.7312 104.826C74.2372 105.363 74.9502 105.631 75.8702 105.631C76.8976 105.631 77.7102 105.317 78.3082 104.688C78.9216 104.044 79.2282 103.124 79.2282 101.928V95.718H82.1032Z" fill="#5D415E"/>
<path d="M90.5595 95.58C92.3688 95.58 93.7488 96.017 94.6995 96.891C95.6655 97.7497 96.1485 99.053 96.1485 100.801V108H93.4345V106.505C93.0818 107.042 92.5758 107.456 91.9165 107.747C91.2725 108.023 90.4905 108.161 89.5705 108.161C88.6505 108.161 87.8455 108.008 87.1555 107.701C86.4655 107.379 85.9288 106.942 85.5455 106.39C85.1775 105.823 84.9935 105.186 84.9935 104.481C84.9935 103.377 85.3998 102.495 86.2125 101.836C87.0405 101.161 88.3362 100.824 90.0995 100.824H93.2735V100.64C93.2735 99.7814 93.0128 99.122 92.4915 98.662C91.9855 98.202 91.2265 97.972 90.2145 97.972C89.5245 97.972 88.8422 98.0794 88.1675 98.294C87.5082 98.5087 86.9485 98.8077 86.4885 99.191L85.3615 97.098C86.0055 96.6074 86.7798 96.2317 87.6845 95.971C88.5892 95.7104 89.5475 95.58 90.5595 95.58ZM90.1685 106.068C90.8892 106.068 91.5255 105.907 92.0775 105.585C92.6448 105.248 93.0435 104.772 93.2735 104.159V102.733H90.3065C88.6505 102.733 87.8225 103.277 87.8225 104.366C87.8225 104.887 88.0295 105.301 88.4435 105.608C88.8575 105.915 89.4325 106.068 90.1685 106.068Z" fill="#5D415E"/>
<path d="M111.98 90.934V108H109.22V106.413C108.744 106.996 108.154 107.433 107.449 107.724C106.759 108.015 105.992 108.161 105.149 108.161C103.968 108.161 102.902 107.9 101.952 107.379C101.016 106.858 100.28 106.122 99.7435 105.171C99.2068 104.205 98.9385 103.101 98.9385 101.859C98.9385 100.617 99.2068 99.5207 99.7435 98.57C100.28 97.6194 101.016 96.8834 101.952 96.362C102.902 95.8407 103.968 95.58 105.149 95.58C105.961 95.58 106.705 95.718 107.38 95.994C108.054 96.27 108.629 96.684 109.105 97.236V90.934H111.98ZM105.494 105.7C106.184 105.7 106.805 105.547 107.357 105.24C107.909 104.918 108.346 104.466 108.668 103.883C108.99 103.3 109.151 102.626 109.151 101.859C109.151 101.092 108.99 100.418 108.668 99.835C108.346 99.2524 107.909 98.8077 107.357 98.501C106.805 98.179 106.184 98.018 105.494 98.018C104.804 98.018 104.183 98.179 103.631 98.501C103.079 98.8077 102.642 99.2524 102.32 99.835C101.998 100.418 101.837 101.092 101.837 101.859C101.837 102.626 101.998 103.3 102.32 103.883C102.642 104.466 103.079 104.918 103.631 105.24C104.183 105.547 104.804 105.7 105.494 105.7Z" fill="#5D415E"/>
</svg>
