<svg width="27" height="24" viewBox="0 0 27 24" fill="none" xmlns="http://www.w3.org/2000/svg">
<path d="M26.0573 2.98536L19.9347 0.087812C19.9057 0.087812 19.9057 0.0878013 19.9057 0.058533C19.8767 0.0292647 19.8186 0.0292719 19.7896 0.0292719C19.7606 0.0292719 19.7026 -7.14558e-06 19.6735 -7.14558e-06C19.6445 -7.14558e-06 19.5865 -7.14558e-06 19.5575 -7.14558e-06C19.5285 -7.14558e-06 19.4704 -7.14558e-06 19.4414 -7.14558e-06C19.4124 -7.14558e-06 19.3544 3.57192e-06 19.3254 0.0292719C19.2963 0.0292719 19.2383 0.058533 19.2093 0.058533C19.1803 0.058533 19.1803 0.0585437 19.1513 0.087812L13.4349 2.78048L7.71854 0.087812C7.68952 0.087812 7.68953 0.0878013 7.66052 0.058533C7.6315 0.0292647 7.57346 0.0292719 7.54444 0.0292719C7.51542 0.0292719 7.45738 -7.14558e-06 7.42837 -7.14558e-06C7.39935 -7.14558e-06 7.34131 -7.14558e-06 7.31229 -7.14558e-06C7.28327 -7.14558e-06 7.22523 -7.14558e-06 7.19621 -7.14558e-06C7.1672 -7.14558e-06 7.10919 3.57192e-06 7.08017 0.0292719C7.05116 0.0292719 6.99312 0.058533 6.9641 0.058533C6.93508 0.058533 6.93506 0.0585437 6.90604 0.087812L0.667378 2.98536C0.319173 3.16097 7.08424e-06 3.51219 7.08424e-06 3.92195V22.9463C7.08424e-06 23.2976 0.261168 23.6195 0.551338 23.8244C0.725441 23.9415 0.957577 24 1.13168 24C1.27676 24 1.45086 23.9707 1.59594 23.9122L7.3413 21.2195L13.0577 23.9122C13.1157 23.9415 13.1737 23.9707 13.2318 23.9707C13.2608 23.9707 13.2608 23.9707 13.2898 23.9707C13.3478 23.9707 13.4059 24 13.4929 24C13.551 24 13.638 24 13.696 23.9707C13.7251 23.9707 13.7251 23.9707 13.7541 23.9707C13.8121 23.9415 13.8702 23.9415 13.9282 23.9122L19.6445 21.2195L25.3609 23.9122C25.506 23.9707 25.6511 24 25.7962 24C25.9993 24 26.1154 23.9415 26.2604 23.8244C26.5506 23.6195 26.6667 23.2976 26.6667 22.9463V3.92195C26.5796 3.51219 26.4345 3.16097 26.0573 2.98536ZM12.0711 21.3366L8.29888 19.4049V2.66342L12.0711 4.59512V21.3366ZM1.91513 4.59512L5.97751 2.66342V19.4049L1.91513 21.3366V4.59512ZM14.3925 4.59512L18.4548 2.66342V19.4049L14.3925 21.3366V4.59512ZM24.5484 21.3366L20.486 19.4049V2.66342L24.5484 4.59512V21.3366Z" fill="white"/>
</svg>
