<svg width="10" height="10" viewBox="0 0 10 10" fill="none" xmlns="http://www.w3.org/2000/svg">
<path d="M9.87227 2.87731L7.12454 0.130291C6.95077 -0.0434337 6.67926 -0.0434337 6.50549 0.130291C6.47291 0.162864 5.68008 0.977193 5.98418 2.04125L4.74607 3.27904C4.06185 3.07274 2.31331 2.71445 1.0209 4.00652C0.847131 4.18024 0.847131 4.45168 1.0209 4.62541L2.88891 6.49294L0.130324 9.25082C-0.043445 9.42455 -0.043445 9.69599 0.130324 9.86971C0.217209 9.95657 0.32582 10 0.434426 10C0.543032 10 0.65163 9.95657 0.738514 9.86971L3.4971 7.11182L5.36513 8.97938C5.45202 9.06624 5.56061 9.10967 5.66922 9.10967C5.77783 9.10967 5.88644 9.06624 5.97332 8.97938C7.26573 7.68731 6.90733 5.92834 6.70098 5.25516L7.93908 4.01737C9.00342 4.32139 9.8071 3.52877 9.85054 3.4962C10.046 3.32247 10.046 3.05103 9.87227 2.87731ZM8.04769 3.11618C7.88478 3.04017 7.68929 3.07275 7.55896 3.20304L5.92988 4.83171C5.81041 4.95114 5.76697 5.14657 5.83213 5.29858C5.83213 5.29858 6.02762 5.78719 6.0602 6.41694C6.09278 7.04669 5.96246 7.57872 5.66922 8.02389L3.82292 6.17807L1.97662 4.33225C3.13871 3.55049 4.63746 4.13681 4.70263 4.16939C4.86553 4.23453 5.05017 4.20196 5.18049 4.07166L6.80958 2.443C6.93991 2.31271 6.9725 2.11727 6.89647 1.9544C6.74442 1.62867 6.79873 1.3355 6.89647 1.10749L8.89482 3.10532C8.66675 3.2139 8.36265 3.26818 8.04769 3.11618ZM5.46287 5.47232C5.47373 5.50489 5.61492 5.81977 5.60406 6.15636C5.5932 6.36266 5.43029 6.52552 5.22394 6.52552H5.21308C5.00673 6.51466 4.83296 6.34092 4.84382 6.13463C4.84382 5.99347 4.78952 5.83063 4.7678 5.77634C4.68092 5.5809 4.76779 5.36373 4.96328 5.27687C5.15877 5.20087 5.38684 5.27688 5.46287 5.47232Z" fill="#4F374C"/>
</svg>
