<svg width="16" height="16" viewBox="0 0 16 16" fill="none" xmlns="http://www.w3.org/2000/svg">
<path d="M15.7956 4.6037L11.3993 0.208465C11.1212 -0.0694939 10.6868 -0.0694939 10.4088 0.208465C10.3567 0.260582 9.08813 1.56351 9.57469 3.26601L7.59371 5.24647C6.49897 4.91639 3.70129 4.34311 1.63344 6.41043C1.35541 6.68839 1.35541 7.12269 1.63344 7.40065L4.62226 10.3887L0.208519 14.8013C-0.069512 15.0793 -0.069512 15.5136 0.208519 15.7915C0.347534 15.9305 0.521312 16 0.695081 16C0.868851 16 1.04261 15.9305 1.18162 15.7915L5.59537 11.3789L8.58421 14.367C8.72323 14.506 8.89698 14.5755 9.07075 14.5755C9.24452 14.5755 9.4183 14.506 9.55732 14.367C11.6252 12.2997 11.0517 9.48535 10.7216 8.40826L12.7025 6.4278C14.4055 6.91423 15.6914 5.64603 15.7609 5.59392C16.0737 5.31596 16.0737 4.88165 15.7956 4.6037ZM12.8763 4.98588C12.6157 4.86427 12.3029 4.9164 12.0943 5.12487L9.4878 7.73073C9.29666 7.92183 9.22715 8.23452 9.33141 8.47773C9.33141 8.47773 9.64419 9.2595 9.69632 10.2671C9.74845 11.2747 9.53993 12.126 9.07075 12.8382L6.11667 9.88492L3.1626 6.9316C5.02193 5.68079 7.41994 6.6189 7.5242 6.67102C7.78486 6.77525 8.08027 6.72313 8.28879 6.51466L10.8953 3.9088C11.1039 3.70033 11.156 3.38763 11.0344 3.12704C10.7911 2.60587 10.878 2.1368 11.0344 1.77198L14.2317 4.96851C13.8668 5.14224 13.3802 5.22909 12.8763 4.98588ZM8.74059 8.75571C8.75796 8.80783 8.98387 9.31163 8.9665 9.85018C8.94912 10.1803 8.68846 10.4408 8.3583 10.4408H8.34093C8.01077 10.4235 7.73273 10.1455 7.75011 9.8154C7.75011 9.58956 7.66323 9.32901 7.62848 9.24215C7.48946 8.92944 7.62847 8.58198 7.94125 8.443C8.25404 8.32139 8.61895 8.44301 8.74059 8.75571Z" fill="white"/>
</svg>
